<svg width="61" height="61" viewBox="0 0 61 61" fill="none" xmlns="http://www.w3.org/2000/svg">
<circle cx="30.5" cy="30.5" r="30.5" fill="url(#paint0_linear_1_805)"/>
<path fill-rule="evenodd" clip-rule="evenodd" d="M19.2037 30.4999C19.2037 24.2611 24.2612 19.2036 30.5 19.2036C33.4959 19.2036 36.3692 20.3938 38.4877 22.5122C40.6061 24.6307 41.7963 27.5039 41.7963 30.4999C41.7963 36.7387 36.7387 41.7962 30.5 41.7962C24.2612 41.7962 19.2037 36.7387 19.2037 30.4999ZM32.7592 36.1477C34.007 36.1477 35.0185 35.1362 35.0185 33.8885V33.6061C35.0185 33.2941 34.7656 33.0413 34.4537 33.0413H33.6064C33.2945 33.0413 33.0416 33.2941 33.0416 33.6061V33.8885C33.0416 34.0445 32.9152 34.1709 32.7592 34.1709H29.5285C29.7619 33.5359 29.899 32.8696 29.9352 32.194C29.9467 32.006 29.9467 31.8173 29.9352 31.6292H31.0648C31.3767 31.6292 31.6296 31.3764 31.6296 31.0644V29.9348C31.6296 29.6228 31.3767 29.37 31.0648 29.37H29.3139C29.1916 29.0044 29.1157 28.6249 29.0879 28.2403C29.0822 27.5355 29.5972 26.9343 30.2946 26.8319C30.9921 26.7294 31.6582 27.1569 31.8555 27.8337C31.9258 28.0747 32.1467 28.2403 32.3977 28.2403H33.2676C33.4365 28.2378 33.5965 28.1639 33.7081 28.037C33.8114 27.9021 33.8525 27.7296 33.8211 27.5626C33.4746 25.8563 31.8916 24.6902 30.1594 24.8652C28.4271 25.0402 27.1093 26.4993 27.1111 28.2403C27.1209 28.6179 27.174 28.9932 27.2692 29.3587H26.5463C26.2343 29.3587 25.9814 29.6116 25.9814 29.9235V31.0531C25.9814 31.3651 26.2343 31.6179 26.5463 31.6179H27.9357C27.9798 31.803 28.0026 31.9925 28.0035 32.1827C27.8585 33.1693 27.5572 34.1264 27.1111 35.0181C27.0064 35.2184 27.0285 35.4613 27.1676 35.6394L27.4613 35.967C27.5706 36.081 27.7213 36.1462 27.8792 36.1477H32.7592Z" fill="white"/>
<defs>
<linearGradient id="paint0_linear_1_805" x1="0.217156" y1="-7.1046e-07" x2="61.2171" y2="60.8926" gradientUnits="userSpaceOnUse">
<stop offset="0.0104167" stop-color="#8F5FFF"/>
<stop offset="1" stop-color="#5206FF"/>
</linearGradient>
</defs>
</svg>
