<svg width="24" height="24" viewBox="0 0 24 24" fill="none" xmlns="http://www.w3.org/2000/svg">
<path d="M12 4.36111C16.2167 4.36111 19.6389 7.78334 19.6389 12C19.6389 16.2167 16.2167 19.6389 12 19.6389C7.78334 19.6389 4.36111 16.2167 4.36111 12C4.36111 7.78334 7.78334 4.36111 12 4.36111ZM12 18.1111C15.3764 18.1111 18.1111 15.3764 18.1111 12C18.1111 8.62361 15.3764 5.88889 12 5.88889C8.62361 5.88889 5.88889 8.62361 5.88889 12C5.88889 15.3764 8.62361 18.1111 12 18.1111ZM12 11.2361H15.0556V12.7639H12V15.0556L8.94445 12L12 8.94445V11.2361Z" fill="#07090D"/>
</svg>
