<svg width="16" height="16" viewBox="0 0 16 16" fill="none" xmlns="http://www.w3.org/2000/svg">
<path d="M7.99997 7.23611V4.94445L11.0555 8L7.99997 11.0556V8.76389H4.94442V7.23611H7.99997ZM7.99997 0.361115C12.2166 0.361115 15.6389 3.78334 15.6389 8C15.6389 12.2167 12.2166 15.6389 7.99997 15.6389C3.78331 15.6389 0.361084 12.2167 0.361084 8C0.361084 3.78334 3.78331 0.361115 7.99997 0.361115ZM7.99997 14.1111C11.3764 14.1111 14.1111 11.3764 14.1111 8C14.1111 4.62361 11.3764 1.88889 7.99997 1.88889C4.62358 1.88889 1.88886 4.62361 1.88886 8C1.88886 11.3764 4.62358 14.1111 7.99997 14.1111Z" fill="white"/>
</svg>
