<svg width="61" height="61" viewBox="0 0 61 61" fill="none" xmlns="http://www.w3.org/2000/svg">
<circle cx="30.5" cy="30.5" r="30.5" fill="url(#paint0_linear_1_795)"/>
<path fill-rule="evenodd" clip-rule="evenodd" d="M26.5462 19.2036H34.4536C34.7656 19.2036 35.0185 19.4564 35.0185 19.7682V20.8972C35.0185 21.209 34.7656 21.4618 34.4536 21.4618H33.8888V25.4362C33.8864 26.1934 34.264 26.9015 34.8942 27.3217C37.7897 29.2562 39.0779 32.8565 38.0667 36.1876C37.0554 39.5187 33.9827 41.7962 30.4999 41.7962C27.0172 41.7962 23.9445 39.5187 22.9332 36.1876C21.9219 32.8565 23.2102 29.2562 26.1057 27.3217C26.7359 26.9015 27.1134 26.1934 27.111 25.4362V21.4618H26.5462C26.2343 21.4618 25.9814 21.209 25.9814 20.8972V19.7682C25.9814 19.4564 26.2343 19.2036 26.5462 19.2036ZM33.6404 29.1962C32.3833 28.3579 31.6287 26.9469 31.6297 25.4364V21.462H29.3704V25.4364C29.3714 26.9469 28.6168 28.3579 27.3597 29.1962C25.7946 30.2427 24.8541 31.9999 24.8519 33.882H36.1482C36.1459 31.9999 35.2055 30.2427 33.6404 29.1962Z" fill="white"/>
<defs>
<linearGradient id="paint0_linear_1_795" x1="8.9866" y1="8.16964" x2="52.8304" y2="51.1964" gradientUnits="userSpaceOnUse">
<stop stop-color="#8B96FF"/>
<stop offset="1" stop-color="#4353FF"/>
</linearGradient>
</defs>
</svg>
