<svg width="61" height="61" viewBox="0 0 61 61" fill="none" xmlns="http://www.w3.org/2000/svg">
<circle cx="30.5" cy="30.5" r="30.5" fill="url(#paint0_linear_1_765)"/>
<path fill-rule="evenodd" clip-rule="evenodd" d="M38.4074 25.9815H37.7974C38.1956 25.2951 38.406 24.5158 38.4074 23.7223C38.4074 21.8506 36.8902 20.3334 35.0185 20.3334C33.1854 20.5577 31.5384 21.5624 30.5 23.0897C29.4616 21.5624 27.8146 20.5577 25.9815 20.3334C24.1099 20.3334 22.5926 21.8506 22.5926 23.7223C22.594 24.5158 22.8044 25.2951 23.2026 25.9815H22.5926C21.3448 25.9815 20.3333 26.993 20.3333 28.2408V31.6297C20.3333 32.2535 20.8391 32.7593 21.463 32.7593H22.5926V38.4074C22.5926 39.6552 23.6041 40.6667 24.8519 40.6667H36.1482C37.3959 40.6667 38.4074 39.6552 38.4074 38.4074V32.7593H39.537C40.1609 32.7593 40.6667 32.2535 40.6667 31.6297V28.2408C40.6667 26.993 39.6552 25.9815 38.4074 25.9815ZM35.0185 22.5926C35.6424 22.5926 36.1481 23.0983 36.1481 23.7222C36.1493 24.4737 35.7767 25.1766 35.1541 25.5974C34.7801 25.8487 34.3395 25.9825 33.8889 25.9815H31.6296C31.6296 24.7502 33.7872 22.5926 35.0185 22.5926ZM25.9815 22.5926C25.3576 22.5926 24.8519 23.0983 24.8519 23.7222C24.8519 24.97 25.8634 25.9815 27.1111 25.9815H29.3704C29.3704 24.7502 27.2128 22.5926 25.9815 22.5926ZM22.5926 28.2407H29.3704V30.5H22.5926V28.2407ZM29.3704 32.7593H24.8519V38.4074H29.3704V32.7593ZM31.6296 38.4074V32.7593H36.1481V38.4074H31.6296ZM31.6296 28.2407V30.5H38.4074V28.2407H31.6296Z" fill="white"/>
<defs>
<linearGradient id="paint0_linear_1_765" x1="30.5" y1="0" x2="30.5" y2="61" gradientUnits="userSpaceOnUse">
<stop stop-color="#FF1593"/>
<stop offset="1" stop-color="#D60073"/>
</linearGradient>
</defs>
</svg>
