<svg width="16" height="16" viewBox="0 0 16 16" fill="none" xmlns="http://www.w3.org/2000/svg">
<path d="M7.99997 0.36084C10.0755 0.36084 10.3344 0.368479 11.1487 0.406673C11.9623 0.444868 12.5161 0.572437 13.0034 0.761882C13.5076 0.955909 13.9323 1.21869 14.3571 1.64265C14.7455 2.02451 15.0461 2.48643 15.2378 2.99626C15.4265 3.48285 15.5548 4.03744 15.593 4.85098C15.6289 5.66528 15.6389 5.92424 15.6389 7.99973C15.6389 10.0752 15.6312 10.3342 15.593 11.1485C15.5548 11.962 15.4265 12.5158 15.2378 13.0032C15.0466 13.5133 14.746 13.9753 14.3571 14.3568C13.9751 14.7451 13.5132 15.0457 13.0034 15.2376C12.5168 15.4263 11.9623 15.5546 11.1487 15.5928C10.3344 15.6287 10.0755 15.6386 7.99997 15.6386C5.92449 15.6386 5.66553 15.631 4.85122 15.5928C4.03768 15.5546 3.48386 15.4263 2.9965 15.2376C2.48647 15.0462 2.02447 14.7456 1.64289 14.3568C1.25438 13.975 0.953809 13.5131 0.762126 13.0032C0.572681 12.5166 0.445112 11.962 0.406917 11.1485C0.371014 10.3342 0.361084 10.0752 0.361084 7.99973C0.361084 5.92424 0.368723 5.66528 0.406917 4.85098C0.445112 4.03667 0.572681 3.48362 0.762126 2.99626C0.953278 2.48612 1.25392 2.02407 1.64289 1.64265C2.02458 1.254 2.48655 0.953411 2.9965 0.761882C3.48386 0.572437 4.03692 0.444868 4.85122 0.406673C5.66553 0.37077 5.92449 0.36084 7.99997 0.36084ZM7.99997 4.18028C6.98699 4.18028 6.0155 4.58269 5.29922 5.29897C4.58293 6.01526 4.18053 6.98675 4.18053 7.99973C4.18053 9.01271 4.58293 9.9842 5.29922 10.7005C6.0155 11.4168 6.98699 11.8192 7.99997 11.8192C9.01295 11.8192 9.98444 11.4168 10.7007 10.7005C11.417 9.9842 11.8194 9.01271 11.8194 7.99973C11.8194 6.98675 11.417 6.01526 10.7007 5.29897C9.98444 4.58269 9.01295 4.18028 7.99997 4.18028ZM12.9653 3.98931C12.9653 3.73607 12.8647 3.49319 12.6856 3.31412C12.5065 3.13505 12.2636 3.03445 12.0104 3.03445C11.7571 3.03445 11.5143 3.13505 11.3352 3.31412C11.1561 3.49319 11.0555 3.73607 11.0555 3.98931C11.0555 4.24256 11.1561 4.48543 11.3352 4.6645C11.5143 4.84357 11.7571 4.94417 12.0104 4.94417C12.2636 4.94417 12.5065 4.84357 12.6856 4.6645C12.8647 4.48543 12.9653 4.24256 12.9653 3.98931ZM7.99997 5.70806C8.60776 5.70806 9.19066 5.9495 9.62043 6.37927C10.0502 6.80905 10.2916 7.39194 10.2916 7.99973C10.2916 8.60752 10.0502 9.19041 9.62043 9.62018C9.19066 10.05 8.60776 10.2914 7.99997 10.2914C7.39219 10.2914 6.80929 10.05 6.37952 9.62018C5.94975 9.19041 5.70831 8.60752 5.70831 7.99973C5.70831 7.39194 5.94975 6.80905 6.37952 6.37927C6.80929 5.9495 7.39219 5.70806 7.99997 5.70806Z" fill="#07090D"/>
</svg>
