<svg width="16" height="20" viewBox="0 0 16 20" fill="none" xmlns="http://www.w3.org/2000/svg">
<path d="M6.99998 11.6667V13.3334C5.6739 13.3334 4.40213 13.8602 3.46445 14.7978C2.52676 15.7355 1.99998 17.0073 1.99998 18.3334H0.333313C0.333313 16.5653 1.03569 14.8696 2.28593 13.6193C3.53618 12.3691 5.23187 11.6667 6.99998 11.6667ZM6.99998 10.8334C4.23748 10.8334 1.99998 8.59587 1.99998 5.83337C1.99998 3.07087 4.23748 0.833374 6.99998 0.833374C9.76248 0.833374 12 3.07087 12 5.83337C12 8.59587 9.76248 10.8334 6.99998 10.8334ZM6.99998 9.16671C8.84165 9.16671 10.3333 7.67504 10.3333 5.83337C10.3333 3.99171 8.84165 2.50004 6.99998 2.50004C5.15831 2.50004 3.66665 3.99171 3.66665 5.83337C3.66665 7.67504 5.15831 9.16671 6.99998 9.16671ZM14.3566 17.5592L12 20L9.64331 17.5592C8.34081 16.2109 8.34081 14.0259 9.64331 12.6775C9.94719 12.3582 10.3128 12.104 10.7179 11.9303C11.123 11.7566 11.5592 11.667 12 11.667C12.4408 11.667 12.877 11.7566 13.2821 11.9303C13.6872 12.104 14.0528 12.3582 14.3566 12.6775C15.6591 14.0259 15.6591 16.2109 14.3566 17.5592ZM13.1583 16.4009C13.8358 15.6992 13.8358 14.5375 13.1583 13.8359C13.0099 13.6773 12.8305 13.5509 12.6313 13.4645C12.432 13.3781 12.2172 13.3335 12 13.3335C11.7828 13.3335 11.5679 13.3781 11.3687 13.4645C11.1695 13.5509 10.9901 13.6773 10.8416 13.8359C10.1641 14.5375 10.1641 15.6992 10.8416 16.4017L12 17.6L13.1583 16.4V16.4009Z" fill="#160042"/>
</svg>
