<svg width="61" height="61" viewBox="0 0 61 61" fill="none" xmlns="http://www.w3.org/2000/svg">
<circle cx="30.5" cy="30.5" r="30.5" fill="url(#paint0_linear_1_783)"/>
<path fill-rule="evenodd" clip-rule="evenodd" d="M31.6296 23.7223H38.9722C39.2841 23.7223 39.537 23.9751 39.537 24.2871V34.4537C39.537 34.7657 39.2841 35.0185 38.9722 35.0185H31.6296C30.3819 35.0185 29.3704 34.007 29.3704 32.7593H23.7222V41.2315C23.7222 41.5435 23.4693 41.7963 23.1574 41.7963H22.0278C21.7158 41.7963 21.463 41.5435 21.463 41.2315V19.7686C21.463 19.4566 21.7158 19.2037 22.0278 19.2037H23.1574C23.4693 19.2037 23.7222 19.4566 23.7222 19.7686V21.463H29.3704C30.6181 21.463 31.6296 22.4745 31.6296 23.7223ZM23.7222 30.5H29.3704V23.7222H23.7222V30.5Z" fill="white"/>
<defs>
<linearGradient id="paint0_linear_1_783" x1="30.5" y1="0" x2="30.5" y2="61" gradientUnits="userSpaceOnUse">
<stop stop-color="#28DD9C"/>
<stop offset="1" stop-color="#00AE70"/>
</linearGradient>
</defs>
</svg>
