<svg width="61" height="61" viewBox="0 0 61 61" fill="none" xmlns="http://www.w3.org/2000/svg">
<circle cx="30.5" cy="30.5" r="30.5" fill="url(#paint0_linear_1_759)"/>
<path d="M40.6666 33.889H39.537C38.9131 33.889 38.4074 34.3948 38.4074 35.0187V38.4076C38.4074 39.6553 37.3959 40.6668 36.1481 40.6668H32.7592C32.1354 40.6668 31.6296 40.1611 31.6296 39.5372V38.4076C31.6296 37.1598 30.6181 36.1483 29.3703 36.1483C28.1226 36.1483 27.1111 37.1598 27.1111 38.4076V39.5372C27.1111 40.1611 26.6053 40.6668 25.9815 40.6668H22.5926C21.3448 40.6668 20.3333 39.6553 20.3333 38.4076V35.0187C20.3333 34.3948 20.8391 33.889 21.4629 33.889H22.5926C23.8403 33.889 24.8518 32.8775 24.8518 31.6298C24.8518 30.382 23.8403 29.3705 22.5926 29.3705H21.4629C20.8391 29.3705 20.3333 28.8648 20.3333 28.2409V24.852C20.3333 23.6042 21.3448 22.5927 22.5926 22.5927H25.9815C26.6053 22.5927 27.1111 22.087 27.1111 21.4631V20.3335C27.1111 19.0857 28.1226 18.0742 29.3703 18.0742C30.6181 18.0742 31.6296 19.0857 31.6296 20.3335V21.4631C31.6296 22.087 32.1354 22.5927 32.7592 22.5927H36.1481C37.3959 22.5927 38.4074 23.6042 38.4074 24.852V28.2409C38.4074 28.8648 38.9131 29.3705 39.537 29.3705H40.6666C41.9144 29.3705 42.9259 30.382 42.9259 31.6298C42.9259 32.8775 41.9144 33.889 40.6666 33.889Z" fill="white"/>
<defs>
<linearGradient id="paint0_linear_1_759" x1="-0.109905" y1="-4.55402e-07" x2="58.4469" y2="63.0758" gradientUnits="userSpaceOnUse">
<stop offset="0.015625" stop-color="#C166FF"/>
<stop offset="1" stop-color="#9800FF"/>
</linearGradient>
</defs>
</svg>
