<svg width="16" height="14" viewBox="0 0 16 14" fill="none" xmlns="http://www.w3.org/2000/svg">
<path d="M15.7626 2.15391C15.1795 2.41187 14.561 2.58129 13.9278 2.65655C14.5952 2.25737 15.0948 1.62913 15.3333 0.888914C14.7069 1.26169 14.0202 1.52294 13.3044 1.66426C12.8237 1.14984 12.1864 0.808678 11.4917 0.693805C10.797 0.578933 10.0838 0.696789 9.46305 1.02905C8.84226 1.36131 8.34863 1.88937 8.05891 2.53112C7.76918 3.17287 7.6996 3.89236 7.86097 4.57773C6.59071 4.51407 5.34803 4.18397 4.21362 3.60886C3.07921 3.03376 2.07843 2.22652 1.27625 1.23954C0.992304 1.72724 0.84309 2.28166 0.843888 2.846C0.843888 3.95364 1.40764 4.93218 2.26472 5.50509C1.75751 5.48912 1.26145 5.35215 0.817916 5.10558V5.1453C0.818069 5.88299 1.07334 6.59792 1.54044 7.16889C2.00754 7.73985 2.65773 8.13171 3.38076 8.27801C2.90991 8.40561 2.41621 8.42441 1.93701 8.33301C2.14087 8.96798 2.5382 9.5233 3.07337 9.92122C3.60854 10.3191 4.25475 10.5397 4.92153 10.5521C4.25884 11.0726 3.50007 11.4573 2.68859 11.6843C1.87711 11.9113 1.02885 11.9762 0.192291 11.8752C1.65262 12.8143 3.35257 13.3129 5.08882 13.3113C10.9654 13.3113 14.1791 8.44301 14.1791 4.221C14.1791 4.0835 14.1753 3.94447 14.1692 3.8085C14.7947 3.3564 15.3346 2.79636 15.7634 2.15468L15.7626 2.15391Z" fill="#07090D"/>
</svg>
