<svg width="61" height="61" viewBox="0 0 61 61" fill="none" xmlns="http://www.w3.org/2000/svg">
<circle cx="30.5" cy="30.5" r="30.5" fill="url(#paint0_linear_1_747)"/>
<path fill-rule="evenodd" clip-rule="evenodd" d="M40.3616 24.9873L40.2035 24.7049C39.9995 24.3634 39.7118 24.0796 39.3676 23.8803L31.7878 19.5086C31.4445 19.3095 31.0549 19.2043 30.6581 19.2036H30.3305C29.9337 19.2043 29.5441 19.3095 29.2009 19.5086L21.6211 23.8916C21.2788 24.0895 20.9944 24.3739 20.7965 24.7162L20.6383 24.9986C20.4392 25.3418 20.334 25.7314 20.3333 26.1282V34.8829C20.334 35.2797 20.4392 35.6693 20.6383 36.0125L20.7965 36.2949C20.9996 36.6332 21.2828 36.9164 21.6211 37.1195L29.2122 41.4912C29.5537 41.6944 29.9445 41.7999 30.3418 41.7962H30.6581C31.0549 41.7955 31.4445 41.6903 31.7878 41.4912L39.3676 37.1082C39.7133 36.9147 39.9987 36.6293 40.1922 36.2836L40.3616 36.0012C40.5583 35.657 40.6634 35.268 40.6666 34.8716V26.1169C40.6659 25.7202 40.5607 25.3305 40.3616 24.9873ZM30.3305 21.4628H30.6581L37.2777 25.281L30.5 29.1895L23.7222 25.281L30.3305 21.4628ZM31.6296 38.9721L38.2379 35.1539L38.4074 34.8715V27.2352L31.6296 31.155V38.9721Z" fill="white"/>
<defs>
<linearGradient id="paint0_linear_1_747" x1="3.26786" y1="1.05911e-06" x2="58.5491" y2="61" gradientUnits="userSpaceOnUse">
<stop stop-color="#0289FF"/>
<stop offset="1" stop-color="#0258FF"/>
</linearGradient>
</defs>
</svg>
